<?xml version="1.0" standalone="no"?>
<!DOCTYPE svg PUBLIC "-//W3C//DTD SVG 20010904//EN"
 "http://www.w3.org/TR/2001/REC-SVG-20010904/DTD/svg10.dtd">
<svg version="1.0" xmlns="http://www.w3.org/2000/svg"
 width="900.000000pt" height="900.000000pt" viewBox="0 0 900.000000 900.000000"
 preserveAspectRatio="xMidYMid meet">

<g transform="translate(0.000000,900.000000) scale(0.100000,-0.100000)"
fill="#000000" stroke="none">
<path d="M0 4500 l0 -4500 4500 0 4500 0 0 4500 0 4500 -4500 0 -4500 0 0
-4500z m4668 3430 c704 -36 1345 -275 1912 -713 168 -130 476 -445 606 -619
169 -227 293 -436 393 -660 136 -309 222 -612 268 -948 26 -192 26 -668 0
-860 -121 -887 -553 -1653 -1251 -2214 -862 -693 -2046 -915 -3106 -580 -545
172 -996 449 -1397 855 -270 274 -454 533 -623 874 -189 383 -290 738 -336
1175 -29 281 -11 652 47 965 78 423 279 902 534 1270 163 236 451 545 670 720
550 438 1238 702 1915 735 85 4 160 8 165 8 6 1 97 -3 203 -8z"/>
<path d="M4275 7714 c-16 -2 -77 -9 -135 -15 -331 -34 -740 -153 -1031 -300
-241 -120 -497 -289 -662 -436 l-37 -33 2087 0 2087 0 -34 30 c-19 17 -84 68
-145 114 -315 240 -658 413 -1029 520 -293 85 -511 117 -831 121 -132 2 -253
2 -270 -1z"/>
<path d="M2498 6673 c159 -320 1954 -3912 1974 -3947 l26 -49 1006 2012 c553
1106 1006 2013 1006 2016 0 3 -907 5 -2015 5 l-2015 0 18 -37z"/>
<path d="M6860 4560 c0 -1824 2 -2091 14 -2080 24 19 185 229 246 320 388 581
573 1258 531 1945 -7 99 -18 223 -27 275 -72 456 -232 878 -472 1250 -59 92
-201 281 -257 344 l-35 39 0 -2093z"/>
<path d="M2090 6608 c-14 -17 -49 -61 -78 -97 -167 -207 -338 -503 -446 -770
-280 -690 -306 -1451 -74 -2161 125 -383 341 -767 608 -1080 l29 -35 1 2088
c0 1148 -3 2087 -7 2086 -5 0 -19 -14 -33 -31z"/>
<path d="M5625 4450 c-558 -1116 -1015 -2032 -1015 -2035 0 -3 458 -4 1018 -3
l1017 3 2 2033 c2 1117 1 2032 -2 2032 -3 0 -462 -913 -1020 -2030z"/>
<path d="M2350 4442 l0 -2032 1015 0 c558 0 1015 2 1015 5 0 6 -2020 4048
-2026 4054 -2 2 -4 -910 -4 -2027z"/>
<path d="M2410 2189 c0 -14 212 -176 345 -264 503 -333 1038 -503 1640 -522
632 -20 1218 136 1760 467 127 78 425 301 425 318 0 4 -938 7 -2085 7 -1147 0
-2085 -3 -2085 -6z"/>
</g>
</svg>
