<?xml version="1.0" standalone="no"?>
<!DOCTYPE svg PUBLIC "-//W3C//DTD SVG 20010904//EN"
 "http://www.w3.org/TR/2001/REC-SVG-20010904/DTD/svg10.dtd">
<svg version="1.0" xmlns="http://www.w3.org/2000/svg"
 width="600.000000pt" height="600.000000pt" viewBox="0 0 600.000000 600.000000"
 preserveAspectRatio="xMidYMid meet">

<g transform="translate(0.000000,600.000000) scale(0.100000,-0.100000)"
fill="#000000" stroke="none">
<path d="M3458 5275 c-16 -35 14 -69 54 -61 26 5 36 -4 119 -104 50 -61 93
-110 96 -110 2 0 -39 53 -91 118 -53 64 -94 122 -92 128 8 20 -24 54 -50 54
-16 0 -28 -8 -36 -25z"/>
<path d="M2746 5175 c-12 -33 -6 -56 19 -67 19 -8 28 -8 39 2 15 12 35 2 174
-88 12 -8 22 -12 22 -9 0 3 -38 29 -83 58 -65 40 -86 59 -93 83 -7 25 -15 32
-40 34 -22 2 -33 -2 -38 -13z"/>
<path d="M3010 4984 c0 -14 5 -34 11 -45 15 -29 -85 -255 -121 -272 -21 -10
-25 -20 -26 -57 0 -25 -4 -54 -8 -65 -4 -11 1 -5 11 13 11 18 22 30 26 26 4
-4 18 -1 32 6 22 12 30 11 61 -3 19 -10 33 -13 30 -8 -3 4 -19 14 -36 21 -17
7 -30 20 -30 30 0 10 -6 23 -14 29 -12 10 -8 27 29 109 65 149 66 150 91 156
28 7 42 49 24 71 -7 8 -28 15 -46 15 -30 0 -34 -3 -34 -26z"/>
<path d="M3745 4992 c-14 -10 -17 -39 -6 -60 7 -13 3 -29 -18 -62 -47 -77 -93
-160 -88 -160 3 0 31 45 63 100 44 77 63 100 79 100 27 0 45 18 45 45 0 37
-45 59 -75 37z"/>
<path d="M1652 4688 c-7 -7 -12 -20 -12 -29 0 -10 -10 -19 -22 -22 -20 -4 -20
-4 4 -6 15 0 30 -5 33 -11 12 -20 55 -11 66 14 22 47 -33 90 -69 54z"/>
<path d="M3600 4660 c-6 -11 -19 -20 -29 -20 -10 0 -26 -9 -36 -20 -16 -18
-17 -23 -5 -45 7 -14 19 -25 26 -25 7 0 18 -8 24 -17 10 -17 10 -16 8 2 -6 38
33 26 175 -56 168 -97 165 -95 152 -81 -5 6 -59 38 -120 73 -144 81 -188 109
-182 116 3 3 2 16 -4 30 -6 16 -5 31 1 44 6 10 8 19 6 19 -3 0 -10 -9 -16 -20z"/>
<path d="M1548 4623 c6 -2 18 -2 25 0 6 3 1 5 -13 5 -14 0 -19 -2 -12 -5z"/>
<path d="M1493 4613 c9 -2 23 -2 30 0 6 3 -1 5 -18 5 -16 0 -22 -2 -12 -5z"/>
<path d="M1252 4598 c-15 -15 -15 -51 0 -66 24 -24 58 -14 72 20 12 28 12 34
-3 45 -21 16 -54 16 -69 1z"/>
<path d="M1433 4603 c9 -2 23 -2 30 0 6 3 -1 5 -18 5 -16 0 -22 -2 -12 -5z"/>
<path d="M1373 4593 c9 -2 23 -2 30 0 6 3 -1 5 -18 5 -16 0 -22 -2 -12 -5z"/>
<path d="M1713 4593 c30 -55 90 -153 94 -153 5 0 7 -4 -47 88 -23 39 -44 72
-47 72 -2 0 -2 -3 0 -7z"/>
<path d="M2286 4571 c-10 -11 -19 -27 -20 -37 -2 -10 -54 -47 -134 -94 -72
-42 -135 -80 -139 -85 -10 -11 -10 -11 144 79 114 66 136 75 154 66 16 -9 26
-8 45 5 30 19 31 49 2 69 -28 20 -31 20 -52 -3z"/>
<path d="M3040 4566 c0 -3 14 -12 30 -21 17 -9 30 -13 30 -11 0 3 -13 12 -30
21 -16 9 -30 13 -30 11z"/>
<path d="M3520 4520 c-6 -11 -8 -20 -6 -20 3 0 10 9 16 20 6 11 8 20 6 20 -3
0 -10 -9 -16 -20z"/>
<path d="M3110 4526 c0 -3 16 -14 37 -24 25 -13 39 -30 47 -53 13 -39 52 -51
80 -24 20 21 20 28 -3 56 -16 20 -23 22 -47 13 -24 -8 -37 -5 -71 14 -24 13
-43 21 -43 18z"/>
<path d="M3596 4490 c3 -14 11 -32 16 -40 6 -10 7 -7 2 10 -3 14 -11 32 -16
40 -6 10 -7 7 -2 -10z"/>
<path d="M2836 4483 c-6 -14 -5 -15 5 -6 7 7 10 15 7 18 -3 3 -9 -2 -12 -12z"/>
<path d="M3455 4408 c-26 -46 -50 -86 -52 -90 -2 -5 -2 -8 1 -8 3 0 37 57 103
173 2 4 2 7 -1 7 -2 0 -25 -37 -51 -82z"/>
<path d="M2812 4435 c-17 -37 -14 -45 4 -12 9 16 14 31 11 33 -2 2 -9 -7 -15
-21z"/>
<path d="M3630 4395 c0 -5 5 -17 10 -25 5 -8 10 -10 10 -5 0 6 -5 17 -10 25
-5 8 -10 11 -10 5z"/>
<path d="M3965 4389 c-4 -6 -14 -8 -22 -4 -12 4 -13 3 -5 -8 7 -8 9 -16 6 -20
-3 -3 -1 -15 6 -26 15 -28 65 -29 80 0 21 39 -42 95 -65 58z"/>
<path d="M1854 4352 c3 -6 2 -21 -3 -35 -11 -29 10 -67 38 -67 9 0 23 -6 30
-12 9 -8 12 -9 7 -1 -11 19 4 40 27 38 12 -1 14 0 5 2 -25 6 -22 37 5 58 l22
17 -25 -14 c-25 -14 -62 -8 -99 16 -9 6 -12 5 -7 -2z"/>
<path d="M2756 4315 c-9 -26 -7 -32 5 -12 6 10 9 21 6 23 -2 3 -7 -2 -11 -11z"/>
<path d="M3666 4300 c4 -14 13 -38 20 -55 11 -24 13 -25 8 -5 -4 14 -13 39
-20 55 -11 24 -13 25 -8 5z"/>
<path d="M3380 4280 c-6 -11 -8 -20 -6 -20 3 0 10 9 16 20 6 11 8 20 6 20 -3
0 -10 -9 -16 -20z"/>
<path d="M4734 4290 c-33 -13 -37 -48 -8 -77 13 -13 24 -29 25 -36 0 -7 3 -6
7 3 4 8 15 27 26 42 10 16 16 34 13 42 -9 22 -39 35 -63 26z"/>
<path d="M2003 4263 c9 -2 25 -2 35 0 9 3 1 5 -18 5 -19 0 -27 -2 -17 -5z"/>
<path d="M2068 4253 c6 -2 18 -2 25 0 6 3 1 5 -13 5 -14 0 -19 -2 -12 -5z"/>
<path d="M2717 4225 c-9 -19 -22 -35 -28 -35 -6 0 -22 -9 -35 -19 l-24 -19 25
-31 26 -30 -38 -24 c-69 -43 -408 -236 -425 -243 -14 -4 -18 -1 -18 14 0 24
-16 38 -52 44 -21 4 -28 0 -32 -16 -9 -34 -7 -45 14 -66 19 -19 19 -20 -78
-75 -54 -30 -105 -60 -115 -67 -14 -11 5 -26 152 -110 l169 -97 219 126 c120
70 281 163 358 208 l140 81 3 192 c2 129 -1 192 -8 192 -6 0 -57 -27 -113 -60
-99 -57 -136 -72 -122 -49 4 5 -1 19 -10 29 -15 17 -15 20 0 50 9 18 15 34 13
36 -3 2 -12 -12 -21 -31z m241 -184 l-3 -163 -345 -199 c-190 -109 -349 -199
-353 -199 -4 0 -73 38 -153 84 l-144 83 247 143 c137 79 358 208 493 286 135
78 248 139 253 135 4 -4 6 -81 5 -170z"/>
<path d="M2123 4243 c9 -2 23 -2 30 0 6 3 -1 5 -18 5 -16 0 -22 -2 -12 -5z"/>
<path d="M3002 4058 l3 -192 325 -188 c179 -104 341 -197 361 -208 l36 -19
164 95 c90 53 166 97 167 99 2 2 -44 31 -102 66 -99 57 -106 63 -91 79 8 9 15
22 15 28 0 7 5 12 11 12 14 0 -28 34 -53 43 -18 6 -44 -17 -49 -46 -3 -14 -47
8 -241 119 -233 134 -236 136 -217 155 20 20 25 54 9 64 -7 4 -6 14 1 28 9 20
9 20 -4 5 -8 -10 -23 -18 -34 -18 -24 0 -43 -18 -43 -42 0 -10 -3 -18 -6 -18
-4 0 -57 29 -119 65 -61 36 -117 65 -123 65 -9 0 -12 -48 -10 -192z m498 -108
c212 -123 412 -238 445 -257 33 -19 63 -38 67 -41 4 -4 -58 -45 -138 -91 -125
-72 -148 -82 -168 -73 -20 9 -665 380 -674 387 -2 2 -4 204 -2 323 l0 24 43
-25 c23 -13 215 -125 427 -247z"/>
<path d="M2178 4233 c6 -2 18 -2 25 0 6 3 1 5 -13 5 -14 0 -19 -2 -12 -5z"/>
<path d="M2243 4223 c9 -2 23 -2 30 0 6 3 -1 5 -18 5 -16 0 -22 -2 -12 -5z"/>
<path d="M1940 4200 c6 -11 13 -20 16 -20 2 0 0 9 -6 20 -6 11 -13 20 -16 20
-2 0 0 -9 6 -20z"/>
<path d="M2298 4213 c6 -2 18 -2 25 0 6 3 1 5 -13 5 -14 0 -19 -2 -12 -5z"/>
<path d="M2358 4203 c6 -2 18 -2 25 0 6 3 1 5 -13 5 -14 0 -19 -2 -12 -5z"/>
<path d="M3706 4190 c3 -14 11 -32 16 -40 6 -10 7 -7 2 10 -3 14 -11 32 -16
40 -6 10 -7 7 -2 -10z"/>
<path d="M2413 4193 c9 -2 23 -2 30 0 6 3 -1 5 -18 5 -16 0 -22 -2 -12 -5z"/>
<path d="M2468 4183 c6 -2 18 -2 25 0 6 3 1 5 -13 5 -14 0 -19 -2 -12 -5z"/>
<path d="M2528 4173 c6 -2 18 -2 25 0 6 3 1 5 -13 5 -14 0 -19 -2 -12 -5z"/>
<path d="M1975 4140 c9 -16 18 -30 21 -30 2 0 -2 14 -11 30 -9 17 -18 30 -21
30 -2 0 2 -13 11 -30z"/>
<path d="M2588 4163 c6 -2 18 -2 25 0 6 3 1 5 -13 5 -14 0 -19 -2 -12 -5z"/>
<path d="M2015 4070 c9 -16 18 -30 21 -30 2 0 -2 14 -11 30 -9 17 -18 30 -21
30 -2 0 2 -13 11 -30z"/>
<path d="M3746 4080 c3 -14 11 -32 16 -40 6 -10 7 -7 2 10 -3 14 -11 32 -16
40 -6 10 -7 7 -2 -10z"/>
<path d="M4742 4039 c-2 -58 -5 -67 -23 -72 -11 -3 -23 -15 -26 -26 -4 -16
-16 -21 -62 -26 -86 -10 -94 -15 -15 -10 56 4 74 2 84 -10 7 -8 22 -15 34 -15
42 0 61 44 31 73 -9 9 -15 41 -18 83 l-3 69 -2 -66z"/>
<path d="M1297 4040 c-6 -17 -23 -34 -39 -41 -16 -6 -31 -16 -34 -21 -3 -5 12
0 34 11 36 18 41 19 53 5 7 -9 21 -13 33 -10 17 4 34 -14 99 -103 54 -76 77
-117 77 -138 0 -34 16 -53 46 -53 26 0 47 22 42 47 -1 10 0 23 4 28 3 6 -13
11 -40 13 -26 1 -50 8 -53 15 -4 6 -39 54 -78 106 -52 69 -68 98 -62 110 16
29 -5 61 -40 61 -25 0 -33 -6 -42 -30z"/>
<path d="M2050 4010 c6 -11 13 -20 16 -20 2 0 0 9 -6 20 -6 11 -13 20 -16 20
-2 0 0 -9 6 -20z"/>
<path d="M3780 3985 c0 -5 5 -17 10 -25 5 -8 10 -10 10 -5 0 6 -5 17 -10 25
-5 8 -10 11 -10 5z"/>
<path d="M2085 3950 c9 -16 18 -30 21 -30 2 0 -2 14 -11 30 -9 17 -18 30 -21
30 -2 0 2 -13 11 -30z"/>
<path d="M1842 3958 c-35 -35 12 -92 57 -69 39 21 21 81 -24 81 -12 0 -26 -5
-33 -12z"/>
<path d="M1127 3929 c-29 -15 -42 -17 -58 -9 -16 9 -26 8 -45 -5 -29 -19 -31
-46 -4 -70 28 -25 70 -7 70 30 0 19 9 29 40 45 22 11 40 23 40 25 0 7 0 7 -43
-16z"/>
<path d="M4328 3901 c-8 -11 -29 -21 -48 -24 l-35 -4 37 -1 c20 -1 41 -8 45
-16 4 -7 17 -18 29 -24 18 -10 25 -6 52 23 20 23 25 35 16 35 -8 0 -17 7 -20
15 -9 22 -60 19 -76 -4z"/>
<path d="M1794 3884 c-18 -14 -18 -15 4 -4 12 6 22 13 22 15 0 8 -5 6 -26 -11z"/>
<path d="M4473 3893 c15 -2 37 -2 50 0 12 2 0 4 -28 4 -27 0 -38 -2 -22 -4z"/>
<path d="M1723 3844 c-24 -14 -43 -27 -43 -30 0 -6 67 33 85 48 17 15 1 8 -42
-18z"/>
<path d="M4158 3863 c12 -2 30 -2 40 0 9 3 -1 5 -23 4 -22 0 -30 -2 -17 -4z"/>
<path d="M4058 3853 c12 -2 32 -2 45 0 12 2 2 4 -23 4 -25 0 -35 -2 -22 -4z"/>
<path d="M3958 3843 c12 -2 32 -2 45 0 12 2 2 4 -23 4 -25 0 -35 -2 -22 -4z"/>
<path d="M2820 3744 c-91 -52 -169 -100 -175 -107 -5 -7 -14 -12 -20 -12 -5 0
-88 -45 -182 -99 l-173 -99 1 -416 0 -416 360 -208 360 -208 167 97 c92 54
192 111 222 128 31 17 117 67 193 111 l137 80 0 416 0 417 -42 24 c-24 14
-103 59 -176 102 -74 43 -136 75 -139 72 -3 -3 -13 3 -22 13 -16 18 -325 201
-339 201 -4 0 -81 -43 -172 -96z m324 -15 c77 -45 142 -82 144 -84 6 -6 -283
-175 -298 -175 -9 0 -71 34 -139 75 -68 41 -126 75 -130 75 -4 0 -12 5 -19 12
-8 8 24 31 131 94 78 46 148 83 156 83 7 1 77 -35 155 -80z m-366 -222 l143
-84 -147 -87 c-81 -47 -151 -86 -157 -86 -11 0 -93 44 -225 123 l-84 49 154
88 c84 49 158 87 164 86 5 -2 74 -42 152 -89z m661 51 c42 -23 111 -63 155
-89 77 -47 78 -47 55 -62 -72 -45 -273 -157 -282 -157 -10 0 -259 139 -290
162 -15 12 -2 22 125 100 79 48 147 87 152 87 5 1 43 -18 85 -41z m244 -539
c-8 -8 -304 -179 -310 -179 -5 0 -1 262 6 323 l6 58 150 87 150 88 3 -185 c1
-101 -1 -188 -5 -192z m-1226 284 l153 -88 0 -188 0 -189 -37 22 c-21 12 -93
54 -161 92 l-123 70 1 184 c1 101 5 184 8 184 4 0 75 -39 159 -87z m689 -10
c128 -76 144 -88 129 -99 -9 -7 -77 -47 -151 -89 l-134 -77 -144 83 c-80 46
-145 88 -146 93 -1 9 268 174 287 175 7 1 79 -38 159 -86z m-281 -225 l110
-63 3 -188 c1 -103 0 -187 -4 -187 -4 0 -74 39 -155 86 l-149 87 0 189 0 189
43 -25 c23 -13 92 -53 152 -88z m438 -269 c-15 -13 -287 -169 -296 -169 -5 0
-7 78 -5 187 l3 186 150 87 150 86 3 -185 c1 -101 -1 -188 -5 -192z m-803 33
l105 -59 3 -172 c1 -94 1 -171 -2 -171 -2 0 -59 32 -127 72 -68 39 -137 79
-154 88 l-30 17 -2 172 -2 172 52 -30 c29 -16 99 -56 157 -89z m1173 -230
c-26 -18 -291 -172 -297 -172 -4 0 -6 76 -6 168 l0 168 53 31 c28 17 99 58
157 92 l105 61 3 -168 c2 -150 1 -168 -15 -180z m-795 11 l102 -58 0 -168 c0
-148 -2 -168 -15 -163 -9 3 -79 42 -155 87 l-140 81 0 170 0 170 53 -31 c28
-17 98 -57 155 -88z m422 -229 c-24 -17 -285 -164 -292 -164 -4 0 -7 75 -7
168 l-1 167 152 87 153 87 5 -167 c4 -141 3 -169 -10 -178z"/>
<path d="M1644 3794 c-18 -14 -18 -15 4 -4 12 6 22 13 22 15 0 8 -5 6 -26 -11z"/>
<path d="M4373 3745 c0 -38 2 -53 4 -32 2 20 2 52 0 70 -2 17 -4 1 -4 -38z"/>
<path d="M5156 3761 c-21 -23 -14 -56 15 -71 15 -9 24 -6 45 15 24 24 25 28
11 48 -19 29 -49 33 -71 8z"/>
<path d="M1599 3663 c6 -10 22 -31 36 -48 20 -23 19 -18 -6 18 -32 46 -49 63
-30 30z"/>
<path d="M5161 3639 c-6 -18 -9 -34 -7 -36 2 -2 9 10 15 28 6 18 9 34 7 36 -2
2 -9 -10 -15 -28z"/>
<path d="M1900 3481 l0 -141 -30 0 c-26 0 -37 10 -78 67 -26 36 -55 75 -65 87
-23 26 13 -30 64 -100 32 -44 37 -58 35 -96 l-3 -45 38 1 39 1 0 -267 c0 -265
0 -266 -21 -261 -14 4 -28 -2 -44 -20 l-24 -25 25 -27 c17 -18 30 -24 44 -20
19 6 20 2 20 -108 0 -62 2 -116 5 -119 4 -3 80 37 171 90 l164 95 -2 419 -3
420 -155 90 c-85 50 -161 92 -167 95 -10 4 -13 -27 -13 -136z m179 18 l141
-81 0 -407 0 -407 -144 -82 c-79 -45 -146 -82 -150 -82 -3 0 -6 257 -6 570 0
330 4 570 9 570 5 0 73 -37 150 -81z"/>
<path d="M3903 3523 l-163 -95 0 -417 0 -417 168 -96 167 -97 3 145 c2 127 5
145 18 140 9 -3 25 -6 37 -6 15 0 33 -16 57 -51 18 -28 39 -53 44 -57 6 -3 -7
18 -28 48 -31 43 -40 65 -41 100 -2 44 0 47 222 313 203 242 227 268 249 263
18 -5 30 0 48 19 23 25 25 25 177 25 143 0 155 -1 167 -20 7 -11 22 -20 35
-20 46 0 61 44 29 84 -18 24 -23 22 -60 -16 -14 -16 -37 -18 -173 -18 -143 0
-157 2 -174 20 -10 11 -26 20 -35 20 -20 0 -44 -25 -37 -37 3 -4 -97 -7 -221
-5 -215 3 -226 4 -240 23 -11 16 -21 20 -43 15 l-29 -5 0 119 c0 66 -3 120 -7
119 -5 0 -81 -44 -170 -96z m157 -513 c0 -313 -3 -570 -6 -570 -4 0 -71 37
-150 83 l-143 82 -1 405 0 406 143 82 c78 45 145 82 150 82 4 0 7 -256 7 -570z
m544 309 c-1 -9 -101 -136 -224 -282 -174 -209 -227 -267 -245 -267 -13 0 -30
-3 -39 -6 -14 -6 -16 22 -16 271 0 272 0 276 20 270 27 -9 60 3 60 21 0 12 33
14 223 12 195 -3 222 -5 221 -19z"/>
<path d="M5131 3559 c-6 -18 -9 -34 -7 -36 2 -2 9 10 15 28 6 18 9 34 7 36 -2
2 -9 -10 -15 -28z"/>
<path d="M1680 3550 c12 -16 24 -30 26 -30 3 0 -4 14 -16 30 -12 17 -24 30
-26 30 -3 0 4 -13 16 -30z"/>
<path d="M4350 3540 c-25 -25 -25 -42 -2 -63 26 -24 49 -21 68 8 16 25 16 27
-6 50 -28 30 -34 31 -60 5z"/>
<path d="M5106 3495 c-9 -26 -7 -32 5 -12 6 10 9 21 6 23 -2 3 -7 -2 -11 -11z"/>
<path d="M5086 3445 c-9 -26 -7 -32 5 -12 6 10 9 21 6 23 -2 3 -7 -2 -11 -11z"/>
<path d="M1603 2993 c-109 -131 -205 -246 -213 -256 -10 -11 -22 -16 -33 -12
-15 6 -17 26 -17 201 0 120 4 194 10 194 5 0 17 11 25 24 23 34 5 66 -36 66
-22 0 -32 -6 -41 -25 -10 -21 -8 -29 10 -48 21 -22 22 -32 22 -218 0 -183 -1
-195 -20 -207 -11 -7 -20 -19 -20 -27 0 -25 36 -54 59 -48 26 7 35 20 36 55 0
25 34 68 375 476 28 34 50 62 47 62 -3 0 -94 -107 -204 -237z"/>
<path d="M4621 2883 c-19 -23 -20 -29 -8 -47 20 -30 52 -32 71 -4 21 29 20 33
-6 58 -28 26 -32 25 -57 -7z"/>
<path d="M898 2719 c-24 -13 -23 -60 1 -81 18 -15 21 -14 53 12 l33 28 -24 26
c-27 28 -37 31 -63 15z"/>
<path d="M886 2565 c-9 -26 -7 -32 5 -12 6 10 9 21 6 23 -2 3 -7 -2 -11 -11z"/>
<path d="M2092 2476 c-90 -51 -165 -96 -168 -98 -2 -3 49 -36 113 -73 65 -37
120 -69 122 -71 3 -3 -2 -10 -11 -17 -24 -19 -28 -44 -9 -61 10 -9 22 -16 28
-16 5 0 15 -10 22 -22 10 -21 11 -21 6 -2 -3 12 1 26 10 34 8 7 15 19 15 26 0
8 4 14 9 14 10 0 439 -246 455 -261 6 -5 2 -17 -9 -29 -15 -17 -16 -24 -7 -45
9 -20 8 -31 -9 -60 -12 -19 -19 -35 -16 -35 3 0 14 15 25 34 12 21 30 36 44
38 13 2 27 13 33 26 5 12 14 22 18 22 5 0 53 -25 106 -55 54 -30 100 -55 104
-55 4 0 7 87 7 193 l0 193 -359 207 c-197 114 -360 207 -362 207 -2 0 -77 -42
-167 -94z m518 -131 c151 -87 292 -169 313 -182 l37 -23 0 -170 0 -171 -29 15
c-16 9 -127 72 -247 142 -119 69 -324 187 -453 261 -130 75 -244 141 -253 147
-15 11 4 24 130 98 l147 86 40 -22 c22 -12 164 -94 315 -181z"/>
<path d="M3373 2371 c-189 -109 -350 -204 -358 -211 -12 -10 -15 -46 -15 -201
0 -104 4 -189 9 -189 5 0 60 29 122 65 63 36 117 65 121 65 4 0 5 -7 2 -15 -4
-8 -1 -22 6 -30 7 -8 10 -27 6 -42 -5 -24 -4 -25 5 -8 5 11 30 29 54 40 34 15
41 21 30 28 -8 4 -15 15 -15 23 0 8 -7 17 -15 20 -8 4 -15 10 -15 14 0 6 463
280 474 280 1 0 2 -9 3 -21 3 -30 22 -49 49 -49 13 0 24 -4 24 -8 0 -5 7 -17
15 -28 15 -17 15 -16 1 12 -9 19 -11 35 -5 45 14 22 11 37 -12 60 -11 11 -19
22 -17 23 2 2 48 29 103 60 55 32 104 61 108 65 7 7 -315 202 -332 201 -3 -1
-160 -90 -348 -199z m520 80 c70 -41 124 -77 120 -81 -4 -4 -116 -69 -248
-145 -446 -257 -738 -425 -739 -425 -5 0 6 346 12 351 4 4 159 95 346 202 299
172 341 193 360 183 11 -6 79 -45 149 -85z"/>
<path d="M4286 2495 c26 -38 56 -79 67 -90 23 -24 -54 89 -90 131 -13 16 -3
-2 23 -41z"/>
<path d="M1597 2529 c-32 -44 14 -94 59 -64 29 18 31 46 6 68 -25 23 -48 21
-65 -4z"/>
<path d="M866 2515 c-9 -26 -7 -32 5 -12 6 10 9 21 6 23 -2 3 -7 -2 -11 -11z"/>
<path d="M836 2435 c-9 -26 -7 -32 5 -12 6 10 9 21 6 23 -2 3 -7 -2 -11 -11z"/>
<path d="M1632 2283 c-1 -59 -6 -105 -13 -108 -6 -4 -14 -17 -19 -29 -18 -47
54 -77 84 -35 17 24 4 55 -26 65 -15 4 -18 21 -21 107 l-3 102 -2 -102z"/>
<path d="M4385 2357 c11 -19 13 -32 7 -40 -6 -7 -10 -24 -9 -39 2 -25 6 -28
39 -28 32 0 40 -6 75 -52 114 -157 122 -171 113 -188 -11 -21 14 -60 39 -60
20 0 51 30 51 48 0 6 18 21 40 32 56 28 50 35 -7 7 -34 -16 -47 -19 -50 -9 -3
6 -17 12 -32 12 -24 0 -39 15 -104 103 -58 80 -76 112 -79 142 -3 34 -7 41
-33 50 -16 5 -38 19 -49 30 -18 20 -18 19 -1 -8z"/>
<path d="M783 2334 c-39 -41 -39 -44 -13 -72 25 -26 29 -27 58 -6 27 19 28 45
3 68 -11 10 -17 24 -14 32 7 20 2 17 -34 -22z"/>
<path d="M4344 2234 c-18 -14 -18 -15 4 -4 12 6 22 13 22 15 0 8 -5 6 -26 -11z"/>
<path d="M4273 2194 c-24 -14 -43 -27 -43 -30 0 -6 67 33 85 48 17 15 1 8 -42
-18z"/>
<path d="M4912 2178 c-7 -7 -12 -19 -12 -27 0 -8 -8 -23 -17 -34 -17 -19 -17
-20 4 -8 14 7 24 8 28 1 16 -25 75 2 75 35 0 35 -53 58 -78 33z"/>
<path d="M2023 2163 c15 -2 37 -2 50 0 12 2 0 4 -28 4 -27 0 -38 -2 -22 -4z"/>
<path d="M1918 2153 c12 -2 32 -2 45 0 12 2 2 4 -23 4 -25 0 -35 -2 -22 -4z"/>
<path d="M4190 2145 c-15 -9 -38 -12 -58 -8 -38 6 -62 -10 -62 -41 0 -64 89
-57 90 6 0 10 14 24 30 33 17 9 30 18 30 20 0 7 -2 6 -30 -10z"/>
<path d="M1818 2143 c12 -2 32 -2 45 0 12 2 2 4 -23 4 -25 0 -35 -2 -22 -4z"/>
<path d="M1728 2133 c12 -2 30 -2 40 0 9 3 -1 5 -23 4 -22 0 -30 -2 -17 -4z"/>
<path d="M1238 2105 c-9 -20 -8 -28 5 -43 12 -13 17 -42 20 -107 l3 -90 2 88
c2 68 5 87 16 87 8 0 22 10 30 23 12 17 33 25 89 34 l72 12 -76 -5 c-61 -4
-78 -2 -88 10 -21 25 -60 20 -73 -9z"/>
<path d="M1498 2113 c12 -2 32 -2 45 0 12 2 2 4 -23 4 -25 0 -35 -2 -22 -4z"/>
<path d="M3900 2060 c6 -11 13 -20 16 -20 2 0 0 9 -6 20 -6 11 -13 20 -16 20
-2 0 0 -9 6 -20z"/>
<path d="M2210 2055 c0 -5 5 -17 10 -25 5 -8 10 -10 10 -5 0 6 -5 17 -10 25
-5 8 -10 11 -10 5z"/>
<path d="M3945 1985 c15 -27 32 -54 38 -60 6 -5 -2 13 -18 40 -15 28 -32 55
-38 60 -6 6 2 -12 18 -40z"/>
<path d="M2240 1975 c0 -5 5 -17 10 -25 5 -8 10 -10 10 -5 0 6 -5 17 -10 25
-5 8 -10 11 -10 5z"/>
<path d="M4005 1880 c9 -16 18 -30 21 -30 2 0 -2 14 -11 30 -9 17 -18 30 -21
30 -2 0 2 -13 11 -30z"/>
<path d="M2276 1880 c3 -14 11 -32 16 -40 6 -10 7 -7 2 10 -3 14 -11 32 -16
40 -6 10 -7 7 -2 -10z"/>
<path d="M3388 1853 c6 -2 18 -2 25 0 6 3 1 5 -13 5 -14 0 -19 -2 -12 -5z"/>
<path d="M3453 1843 c9 -2 23 -2 30 0 6 3 -1 5 -18 5 -16 0 -22 -2 -12 -5z"/>
<path d="M3525 1830 c17 -4 41 -8 55 -8 22 0 22 1 -5 8 -16 4 -41 8 -55 8 -22
0 -22 -1 5 -8z"/>
<path d="M3628 1813 c6 -2 18 -2 25 0 6 3 1 5 -13 5 -14 0 -19 -2 -12 -5z"/>
<path d="M4055 1792 c12 -25 13 -33 3 -36 -41 -13 -43 -14 -25 -15 9 -1 17 -9
17 -18 0 -24 -330 -215 -347 -201 -38 31 -95 -31 -60 -66 30 -31 77 -13 77 29
0 28 335 224 353 206 6 -6 19 -11 29 -11 10 0 28 -19 44 -45 14 -25 28 -45 31
-45 3 0 -7 20 -21 44 -19 33 -24 52 -20 75 8 37 -9 61 -42 61 -13 0 -24 4 -24
8 0 5 -7 17 -15 28 -14 17 -14 15 0 -14z"/>
<path d="M1230 1790 c-11 -11 -20 -24 -20 -30 0 -13 37 -50 50 -50 13 0 50 37
50 50 0 6 -9 19 -20 30 -11 11 -24 20 -30 20 -5 0 -19 -9 -30 -20z"/>
<path d="M3683 1803 c9 -2 23 -2 30 0 6 3 -1 5 -18 5 -16 0 -22 -2 -12 -5z"/>
<path d="M3738 1793 c6 -2 18 -2 25 0 6 3 1 5 -13 5 -14 0 -19 -2 -12 -5z"/>
<path d="M2316 1770 c3 -14 11 -32 16 -40 6 -10 7 -7 2 10 -3 14 -11 32 -16
40 -6 10 -7 7 -2 -10z"/>
<path d="M3798 1783 c6 -2 18 -2 25 0 6 3 1 5 -13 5 -14 0 -19 -2 -12 -5z"/>
<path d="M3853 1773 c9 -2 23 -2 30 0 6 3 -1 5 -18 5 -16 0 -22 -2 -12 -5z"/>
<path d="M3913 1763 c9 -2 23 -2 30 0 6 3 -1 5 -18 5 -16 0 -22 -2 -12 -5z"/>
<path d="M3968 1753 c6 -2 18 -2 25 0 6 3 1 5 -13 5 -14 0 -19 -2 -12 -5z"/>
<path d="M2607 1708 c-35 -61 -51 -95 -40 -83 14 14 76 125 70 125 -3 0 -16
-19 -30 -42z"/>
<path d="M3217 1705 c-24 -50 -20 -58 4 -12 11 22 19 41 17 43 -3 2 -12 -12
-21 -31z"/>
<path d="M1985 1680 c-17 -18 -17 -21 -1 -45 17 -26 50 -33 61 -14 4 6 13 8
20 5 10 -4 11 2 5 24 -5 16 -11 34 -15 40 -10 17 -51 11 -70 -10z"/>
<path d="M2350 1675 c0 -5 5 -17 10 -25 5 -8 10 -10 10 -5 0 6 -5 17 -10 25
-5 8 -10 11 -10 5z"/>
<path d="M3147 1548 c-21 -45 -35 -83 -34 -85 2 -2 21 33 41 78 20 45 35 83
33 85 -2 2 -20 -33 -40 -78z"/>
<path d="M2090 1617 c0 -7 72 -48 76 -44 2 2 -14 14 -36 26 -22 12 -40 20 -40
18z"/>
<path d="M2720 1602 c-41 -33 4 -97 50 -72 11 6 26 8 33 4 9 -5 9 -4 0 7 -7 7
-13 23 -13 36 0 12 -9 27 -19 33 -25 13 -25 13 -51 -8z"/>
<path d="M2540 1590 c-6 -11 -8 -20 -6 -20 3 0 10 9 16 20 6 11 8 20 6 20 -3
0 -10 -9 -16 -20z"/>
<path d="M2386 1580 c4 -14 13 -38 20 -55 11 -24 13 -25 8 -5 -4 14 -13 39
-20 55 -11 24 -13 25 -8 5z"/>
<path d="M4190 1560 c6 -11 13 -20 16 -20 2 0 0 9 -6 20 -6 11 -13 20 -16 20
-2 0 0 -9 6 -20z"/>
<path d="M2494 1510 c-29 -53 -46 -61 -64 -32 -9 14 -11 14 -7 1 3 -9 0 -22
-6 -28 -8 -8 -28 -1 -76 25 -70 38 -63 27 12 -17 64 -38 68 -72 22 -155 -20
-35 -34 -64 -31 -64 3 0 21 29 41 65 30 52 41 65 61 65 30 0 51 39 36 66 -8
14 -3 30 20 71 16 29 28 53 25 53 -3 0 -18 -22 -33 -50z"/>
<path d="M2230 1536 c0 -3 9 -10 20 -16 11 -6 20 -8 20 -6 0 3 -9 10 -20 16
-11 6 -20 8 -20 6z"/>
<path d="M2820 1525 c0 -2 18 -14 40 -25 22 -11 40 -18 40 -15 0 2 -18 14 -40
25 -22 11 -40 18 -40 15z"/>
<path d="M4230 1490 c6 -11 13 -20 16 -20 2 0 0 9 -6 20 -6 11 -13 20 -16 20
-2 0 0 -9 6 -20z"/>
<path d="M4672 1488 c-7 -7 -12 -18 -12 -25 0 -8 -10 -18 -22 -23 l-23 -9 22
0 c12 -1 34 -6 47 -13 22 -9 29 -8 46 7 34 31 20 75 -25 75 -12 0 -26 -5 -33
-12z"/>
<path d="M2910 1476 c0 -3 14 -12 30 -21 17 -9 30 -13 30 -11 0 3 -13 12 -30
21 -16 9 -30 13 -30 11z"/>
<path d="M4264 1433 c10 -20 12 -34 6 -38 -6 -3 -10 -17 -10 -31 0 -53 82 -54
92 -1 5 27 -17 47 -52 47 -11 0 -20 4 -20 8 0 5 -7 17 -15 28 -14 17 -14 16
-1 -13z"/>
<path d="M3085 1442 c-11 -2 -30 -8 -41 -14 -15 -7 -28 -7 -45 2 -23 11 -23
10 -5 -4 11 -9 23 -16 28 -16 4 0 8 -7 8 -15 0 -8 5 -23 11 -33 8 -13 5 -30
-15 -76 -15 -33 -25 -61 -22 -63 2 -2 16 26 31 62 20 47 33 65 47 65 25 0 43
41 32 72 -6 16 -15 23 -29 20z"/>
<path d="M4573 1423 c9 -2 23 -2 30 0 6 3 -1 5 -18 5 -16 0 -22 -2 -12 -5z"/>
<path d="M4513 1413 c9 -2 23 -2 30 0 6 3 -1 5 -18 5 -16 0 -22 -2 -12 -5z"/>
<path d="M4448 1403 c6 -2 18 -2 25 0 6 3 1 5 -13 5 -14 0 -19 -2 -12 -5z"/>
<path d="M4393 1393 c9 -2 23 -2 30 0 6 3 -1 5 -18 5 -16 0 -22 -2 -12 -5z"/>
<path d="M2310 1190 c-6 -11 -8 -20 -6 -20 3 0 10 9 16 20 6 11 8 20 6 20 -3
0 -10 -9 -16 -20z"/>
<path d="M2987 1198 c-3 -7 -12 -30 -21 -50 -9 -21 -14 -38 -12 -38 7 0 47 92
42 97 -2 2 -6 -2 -9 -9z"/>
<path d="M2277 1133 c-8 -15 -29 -31 -48 -37 -60 -19 -47 -92 14 -83 27 3 37
-6 124 -111 65 -77 97 -124 99 -145 4 -27 27 -56 47 -57 12 0 47 39 47 53 0
25 -37 50 -64 43 -22 -5 -35 6 -121 110 -84 100 -97 121 -100 157 -1 23 4 54
11 70 8 15 12 27 10 27 -3 0 -12 -12 -19 -27z"/>
<path d="M2896 1078 c-23 -32 -1 -63 45 -64 21 -1 57 -16 92 -38 32 -21 60
-36 62 -34 2 2 -25 21 -61 43 -48 30 -63 44 -58 57 15 49 -50 79 -80 36z"/>
<path d="M3133 918 c15 -13 27 -34 27 -46 0 -11 10 -26 21 -33 31 -16 69 3 69
35 0 34 -23 49 -63 42 -21 -4 -41 -1 -57 10 -22 13 -21 12 3 -8z"/>
</g>
</svg>
