<svg version="1.1" id="Layer_1" xmlns="http://www.w3.org/2000/svg" xmlns:xlink="http://www.w3.org/1999/xlink" x="0px" y="0px"
	 width="100%" viewBox="0 0 580 580" enable-background="new 0 0 580 580" xml:space="preserve">
<path fill="#0090FF" opacity="1.000000" stroke="none" 
	d="
M0.999999,468.000000 
	C1.000000,350.311310 1.000000,232.622650 1.371817,114.291382 
	C2.157269,111.239807 2.602783,108.835793 2.979582,106.421051 
	C6.540063,83.603409 16.538713,63.609970 31.390253,46.355576 
	C50.232250,24.465105 73.829407,9.789114 102.479477,4.004039 
	C107.964859,2.896421 113.492081,1.996007 119.000000,0.999999 
	C233.355347,1.000000 347.710693,1.000000 462.719208,1.378445 
	C471.995178,3.387655 480.809753,4.353092 489.205139,6.772884 
	C515.265930,14.284403 536.235718,29.518389 553.095642,50.592655 
	C567.345459,68.404480 575.884460,88.658669 579.021301,111.228630 
	C579.614197,115.495018 580.337036,119.743347 581.000000,124.000000 
	C581.000000,235.022018 581.000000,346.044037 580.616089,457.728149 
	C579.674316,477.292999 574.757751,495.086029 565.982727,511.739929 
	C558.543884,525.857971 548.890808,538.248291 536.787354,548.878357 
	C521.275269,562.502136 503.624542,571.756104 483.783844,576.946716 
	C477.280823,578.647949 470.599701,579.668335 464.000000,581.000000 
	C348.644653,581.000000 233.289307,581.000000 117.281334,580.621887 
	C113.384438,579.830933 110.122307,579.525269 106.898766,578.988098 
	C84.050316,575.180847 63.777210,565.557617 46.268745,550.612854 
	C26.916895,534.094543 13.187147,513.584839 6.009984,489.009033 
	C3.994301,482.106995 2.651470,475.008423 0.999999,468.000000 
M229.632919,499.905762 
	C266.759460,510.428955 304.179077,511.473389 341.712708,502.626862 
	C449.553223,477.209290 521.669800,374.387665 508.750549,264.069977 
	C502.402740,209.865936 479.102448,163.732498 438.494904,127.251343 
	C385.533020,79.671196 323.138031,61.919834 252.997772,73.324036 
	C207.303680,80.753510 167.954193,101.712044 135.422501,134.612381 
	C98.782875,171.667175 77.615005,216.347809 72.710289,268.372314 
	C68.689438,311.021729 76.017899,351.725739 96.004929,389.705139 
	C124.955208,444.716522 169.516083,481.217804 229.632919,499.905762 
z"/>
<path fill="#FFFFFF" opacity="1.000000" stroke="none" 
	d="
M581.000000,123.531342 
	C580.337036,119.743347 579.614197,115.495018 579.021301,111.228630 
	C575.884460,88.658669 567.345459,68.404480 553.095642,50.592655 
	C536.235718,29.518389 515.265930,14.284403 489.205139,6.772884 
	C480.809753,4.353092 471.995178,3.387655 463.186188,1.378445 
	C502.261810,1.000000 541.523621,1.000000 581.000000,1.000000 
	C581.000000,41.687309 581.000000,82.375000 581.000000,123.531342 
z"/>
<path fill="#FFFFFF" opacity="1.000000" stroke="none" 
	d="
M464.468658,581.000000 
	C470.599701,579.668335 477.280823,578.647949 483.783844,576.946716 
	C503.624542,571.756104 521.275269,562.502136 536.787354,548.878357 
	C548.890808,538.248291 558.543884,525.857971 565.982727,511.739929 
	C574.757751,495.086029 579.674316,477.292999 580.616089,458.195129 
	C581.000000,498.925140 581.000000,539.850281 581.000000,581.000000 
	C542.312744,581.000000 503.625031,581.000000 464.468658,581.000000 
z"/>
<path fill="#FFFFFF" opacity="1.000000" stroke="none" 
	d="
M118.531342,0.999999 
	C113.492081,1.996007 107.964859,2.896421 102.479477,4.004039 
	C73.829407,9.789114 50.232250,24.465105 31.390253,46.355576 
	C16.538713,63.609970 6.540063,83.603409 2.979582,106.421051 
	C2.602783,108.835793 2.157269,111.239807 1.371817,113.824402 
	C1.000000,76.404800 1.000000,38.809593 1.000000,1.000000 
	C40.020634,1.000000 79.041656,1.000000 118.531342,0.999999 
z"/>
<path fill="#FFFFFF" opacity="1.000000" stroke="none" 
	d="
M0.999999,468.468658 
	C2.651470,475.008423 3.994301,482.106995 6.009984,489.009033 
	C13.187147,513.584839 26.916895,534.094543 46.268745,550.612854 
	C63.777210,565.557617 84.050316,575.180847 106.898766,578.988098 
	C110.122307,579.525269 113.384438,579.830933 116.814346,580.621887 
	C78.407333,581.000000 39.814667,581.000000 1.000000,581.000000 
	C1.000000,543.646057 1.000000,506.291687 0.999999,468.468658 
z"/>
<path fill="#000102" opacity="1.000000" stroke="none" 
	d="
M229.242874,499.804077 
	C169.516083,481.217804 124.955208,444.716522 96.004929,389.705139 
	C76.017899,351.725739 68.689438,311.021729 72.710289,268.372314 
	C77.615005,216.347809 98.782875,171.667175 135.422501,134.612381 
	C167.954193,101.712044 207.303680,80.753510 252.997772,73.324036 
	C323.138031,61.919834 385.533020,79.671196 438.494904,127.251343 
	C479.102448,163.732498 502.402740,209.865936 508.750549,264.069977 
	C521.669800,374.387665 449.553223,477.209290 341.712708,502.626862 
	C304.179077,511.473389 266.759460,510.428955 229.242874,499.804077 
M111.249771,270.926483 
	C108.721169,289.428070 109.495651,307.789734 113.680489,325.989044 
	C122.343178,363.661896 141.386276,395.406891 169.821365,421.257141 
	C208.848862,456.736847 254.242661,475.580536 307.684113,468.807709 
	C348.239868,463.667908 378.932129,442.704407 398.731750,406.529449 
	C399.306915,405.478516 399.635681,404.292755 400.362061,402.454407 
	C398.186707,403.223114 396.807129,403.658813 395.466339,404.192078 
	C371.306824,413.801819 346.186249,416.260010 320.897125,411.431793 
	C253.843582,398.629883 207.043808,359.600098 179.837296,297.637054 
	C163.365341,260.122070 161.308060,221.361404 176.800629,182.564423 
	C177.073959,181.879913 176.931610,181.029419 177.048370,179.280792 
	C171.422073,182.692490 166.305511,185.420990 161.586227,188.718155 
	C133.157455,208.580231 117.136932,236.162827 111.249771,270.926483 
M386.028198,139.432953 
	C351.662415,117.185677 314.431244,105.640099 273.284424,111.090782 
	C232.143127,116.540718 201.037048,137.406128 181.121475,174.214066 
	C180.644455,175.095703 180.465851,176.138809 180.015564,177.510071 
	C181.264450,177.165543 181.919800,177.057098 182.517502,176.809509 
	C212.430756,164.419586 243.182663,163.319519 274.033325,171.738235 
	C331.816498,187.506500 373.204865,223.484573 398.279388,277.486816 
	C416.550385,316.836548 419.637512,357.497772 403.037018,398.578949 
	C402.889313,398.944458 403.138306,399.470276 403.260498,400.334381 
	C419.011505,392.689178 432.344971,382.373657 442.990631,368.861481 
	C470.112274,334.437012 475.805237,295.289246 466.304138,253.652328 
	C455.230316,205.123413 427.167511,167.995026 386.028198,139.432953 
M243.362381,347.153168 
	C267.555054,366.522217 300.400146,369.648987 326.703552,355.087128 
	C353.961670,339.996704 368.643677,311.466156 365.184357,280.310089 
	C360.495392,238.079819 319.972321,207.461227 278.457672,215.389374 
	C248.196945,221.168320 227.505753,238.953445 219.099808,268.705780 
	C210.468216,299.256775 219.192795,325.479828 243.362381,347.153168 
z"/>
<path fill="#008FFE" opacity="1.000000" stroke="none" 
	d="
M111.327042,270.493378 
	C117.136932,236.162827 133.157455,208.580231 161.586227,188.718155 
	C166.305511,185.420990 171.422073,182.692490 177.048370,179.280792 
	C176.931610,181.029419 177.073959,181.879913 176.800629,182.564423 
	C161.308060,221.361404 163.365341,260.122070 179.837296,297.637054 
	C207.043808,359.600098 253.843582,398.629883 320.897125,411.431793 
	C346.186249,416.260010 371.306824,413.801819 395.466339,404.192078 
	C396.807129,403.658813 398.186707,403.223114 400.362061,402.454407 
	C399.635681,404.292755 399.306915,405.478516 398.731750,406.529449 
	C378.932129,442.704407 348.239868,463.667908 307.684113,468.807709 
	C254.242661,475.580536 208.848862,456.736847 169.821365,421.257141 
	C141.386276,395.406891 122.343178,363.661896 113.680489,325.989044 
	C109.495651,307.789734 108.721169,289.428070 111.327042,270.493378 
z"/>
<path fill="#008FFE" opacity="1.000000" stroke="none" 
	d="
M386.318481,139.648682 
	C427.167511,167.995026 455.230316,205.123413 466.304138,253.652328 
	C475.805237,295.289246 470.112274,334.437012 442.990631,368.861481 
	C432.344971,382.373657 419.011505,392.689178 403.260498,400.334381 
	C403.138306,399.470276 402.889313,398.944458 403.037018,398.578949 
	C419.637512,357.497772 416.550385,316.836548 398.279388,277.486816 
	C373.204865,223.484573 331.816498,187.506500 274.033325,171.738235 
	C243.182663,163.319519 212.430756,164.419586 182.517502,176.809509 
	C181.919800,177.057098 181.264450,177.165543 180.015564,177.510071 
	C180.465851,176.138809 180.644455,175.095703 181.121475,174.214066 
	C201.037048,137.406128 232.143127,116.540718 273.284424,111.090782 
	C314.431244,105.640099 351.662415,117.185677 386.318481,139.648682 
z"/>
<path fill="#008FFE" opacity="1.000000" stroke="none" 
	d="
M243.086090,346.929565 
	C219.192795,325.479828 210.468216,299.256775 219.099808,268.705780 
	C227.505753,238.953445 248.196945,221.168320 278.457672,215.389374 
	C319.972321,207.461227 360.495392,238.079819 365.184357,280.310089 
	C368.643677,311.466156 353.961670,339.996704 326.703552,355.087128 
	C300.400146,369.648987 267.555054,366.522217 243.086090,346.929565 
z"/>
</svg>